<?xml version="1.0" encoding="UTF-8" standalone="no"?>
<!-- Created with Inkscape (http://www.inkscape.org/) -->

<svg
   xmlns:dc="http://purl.org/dc/elements/1.1/"
   xmlns:cc="http://creativecommons.org/ns#"
   xmlns:rdf="http://www.w3.org/1999/02/22-rdf-syntax-ns#"
   xmlns:svg="http://www.w3.org/2000/svg"
   xmlns="http://www.w3.org/2000/svg"
   xmlns:sodipodi="http://sodipodi.sourceforge.net/DTD/sodipodi-0.dtd"
   xmlns:inkscape="http://www.inkscape.org/namespaces/inkscape"
   width="50.922527mm"
   height="21.263538mm"
   viewBox="0 0 50.922528 21.263538"
   version="1.1"
   id="svg8"
   inkscape:version="0.92.2 5c3e80d, 2017-08-06"
   sodipodi:docname="logo.svg"
   inkscape:export-filename="/Users/andresdoregobarros/Emprendimientos/Consultora de innovacion/Productos/Loyaltyapp/source/next-loyaltyapp/next-loyaltyapp/public/images/logo.png"
   inkscape:export-xdpi="96"
   inkscape:export-ydpi="96">
  <defs
     id="defs2">
    <filter
       inkscape:collect="always"
       style="color-interpolation-filters:sRGB"
       id="filter2174"
       x="-0.014488618"
       width="1.0289772"
       y="-0.016942356"
       height="1.0338846">
      <feGaussianBlur
         inkscape:collect="always"
         stdDeviation="3.0909051"
         id="feGaussianBlur2176" />
    </filter>
    <filter
       inkscape:collect="always"
       style="color-interpolation-filters:sRGB"
       id="filter2270"
       x="-0.02028154"
       width="1.0405631"
       y="-0.16000937"
       height="1.3200186">
      <feGaussianBlur
         inkscape:collect="always"
         stdDeviation="0.29409055"
         id="feGaussianBlur2272" />
    </filter>
  </defs>
  <sodipodi:namedview
     id="base"
     pagecolor="#ffffff"
     bordercolor="#666666"
     borderopacity="1.0"
     inkscape:pageopacity="0"
     inkscape:pageshadow="2"
     inkscape:zoom="4.0767512"
     inkscape:cx="117.12425"
     inkscape:cy="10.769079"
     inkscape:document-units="mm"
     inkscape:current-layer="layer1"
     showgrid="false"
     inkscape:window-width="1680"
     inkscape:window-height="932"
     inkscape:window-x="0"
     inkscape:window-y="1"
     inkscape:window-maximized="1"
     fit-margin-top="0"
     fit-margin-left="0"
     fit-margin-right="0"
     fit-margin-bottom="0"
     inkscape:pagecheckerboard="true"
     inkscape:showpageshadow="false" />
  <metadata
     id="metadata5">
    <rdf:RDF>
      <cc:Work
         rdf:about="">
        <dc:format>image/svg+xml</dc:format>
        <dc:type
           rdf:resource="http://purl.org/dc/dcmitype/StillImage" />
        <dc:title></dc:title>
      </cc:Work>
    </rdf:RDF>
  </metadata>
  <g
     inkscape:label="Capa 1"
     inkscape:groupmode="layer"
     id="layer1"
     transform="translate(-23.66131,-38.805369)">
    <text
       xml:space="preserve"
       style="font-style:normal;font-variant:normal;font-weight:normal;font-stretch:normal;font-size:8.46666622px;line-height:1.25;font-family:Lato;-inkscape-font-specification:'Lato, Normal';font-variant-ligatures:normal;font-variant-caps:normal;font-variant-numeric:normal;font-feature-settings:normal;text-align:start;letter-spacing:0px;word-spacing:0px;writing-mode:lr-tb;text-anchor:start;fill:#ffffff;fill-opacity:1;stroke:none;stroke-width:0.26458332"
       x="23.66131"
       y="45.041069"
       id="text817"
       inkscape:export-xdpi="96"
       inkscape:export-ydpi="96"><tspan
         sodipodi:role="line"
         id="tspan815"
         x="23.66131"
         y="45.041069"
         style="font-style:normal;font-variant:normal;font-weight:normal;font-stretch:normal;font-size:8.46666622px;font-family:Lato;-inkscape-font-specification:'Lato, Normal';font-variant-ligatures:normal;font-variant-caps:normal;font-variant-numeric:normal;font-feature-settings:normal;text-align:start;writing-mode:lr-tb;text-anchor:start;fill:#ffffff;fill-opacity:1;stroke-width:0.26458332">        yaltyAPP</tspan><tspan
         sodipodi:role="line"
         x="23.66131"
         y="55.624401"
         style="font-style:normal;font-variant:normal;font-weight:normal;font-stretch:normal;font-size:8.46666622px;font-family:Lato;-inkscape-font-specification:'Lato, Normal';font-variant-ligatures:normal;font-variant-caps:normal;font-variant-numeric:normal;font-feature-settings:normal;text-align:start;writing-mode:lr-tb;text-anchor:start;fill:#ffffff;fill-opacity:1;stroke-width:0.26458332"
         id="tspan1513" /><tspan
         sodipodi:role="line"
         x="23.66131"
         y="66.207733"
         style="font-style:normal;font-variant:normal;font-weight:normal;font-stretch:normal;font-size:8.46666622px;font-family:Lato;-inkscape-font-specification:'Lato, Normal';font-variant-ligatures:normal;font-variant-caps:normal;font-variant-numeric:normal;font-feature-settings:normal;text-align:start;writing-mode:lr-tb;text-anchor:start;fill:#ffffff;fill-opacity:1;stroke-width:0.26458332"
         id="tspan1515" /></text>
    <g
       id="g1503"
       transform="matrix(0.0166282,0,0,0.01614379,27.933043,38.467542)"
       style="opacity:0.88700005;fill:#c3181e;fill-opacity:1;stroke:none;stroke-width:6.10343933;stroke-miterlimit:4;stroke-dasharray:none;stroke-opacity:1;filter:url(#filter2174)"
       inkscape:export-xdpi="96"
       inkscape:export-ydpi="96">
      <path
         style="fill:#c3181e;fill-opacity:1;stroke:none;stroke-width:6.10343933;stroke-miterlimit:4;stroke-dasharray:none;stroke-opacity:1"
         id="path2"
         d="m 244,84 11.1,12 12,-11.98 C 300.6,51.37 347,36.51 392.6,44.1 461.5,55.58 512,115.2 512,185.1 v 5.8 c 0,41.5 -17.2,81.2 -47.6,109.5 L 283.7,469.1 c -7.5,7 -17.4,10.9 -27.7,10.9 -10.3,0 -20.2,-3.9 -27.7,-10.9 L 47.59,300.4 C 17.23,272.1 0,232.4 0,190.9 v -5.8 c 0,-69.9 50.52,-129.52 119.4,-141 44.7,-7.59 92,7.27 124.6,39.9 -0.9,0 0,0.01 0,0 z m 11.1,79.9 -45,-46.8 C 188.4,96.28 157.6,86.4 127.3,91.44 81.55,99.07 48,138.7 48,185.1 v 5.8 c 0,28.2 11.71,55.2 32.34,74.4 L 256,429.3 431.7,265.3 C 452.3,246.1 464,219.1 464,190.9 v -5.8 c 0,-46.4 -33.6,-86.03 -79.3,-93.66 -30.3,-5.04 -61.1,4.84 -82.8,25.66 z"
         inkscape:connector-curvature="0" />
      <path
         inkscape:connector-curvature="0"
         id="path817"
         d="m 164.93728,342.90339 c -49.24266,-45.99025 -92.914086,-88.21398 -97.047607,-93.8305 -11.467094,-15.58121 -16.605196,-31.149 -17.89705,-54.22577 -1.392755,-24.8792 2.896857,-42.74617 14.61593,-60.87786 19.76291,-30.57706 56.849067,-47.203558 92.563497,-41.49815 25.25454,4.034432 35.61205,10.53289 68.5618,43.0167 l 29.82877,29.40696 28.74751,-28.38434 c 31.64073,-31.24102 42.23106,-38.046249 67.3623,-43.286261 12.22098,-2.54815 18.36813,-2.713201 30.56564,-0.82069 52.9063,8.208691 87.8052,57.004671 79.53265,111.203301 -2.92528,19.16536 -13.77476,42.82637 -25.28315,55.13859 -12.33976,13.20168 -178.58381,167.77666 -180.44232,167.77666 -0.86673,0 -41.86531,-37.62839 -91.10797,-83.61864 z"
         style="opacity:1;fill:#c3181e;fill-opacity:1;fill-rule:evenodd;stroke:none;stroke-width:6.10343933;stroke-linecap:butt;stroke-linejoin:round;stroke-miterlimit:4;stroke-dasharray:none;stroke-dashoffset:3.77952766;stroke-opacity:1" />
      <path
         inkscape:connector-curvature="0"
         id="path819"
         d="M 197.99398,374.10059 C 100.7363,283.58515 70.604869,254.35264 64.18617,244.28475 53.310318,227.22569 48.859185,208.20297 49.821477,182.89463 c 0.729561,-19.18752 1.728933,-24.01325 7.504403,-36.237 18.244834,-38.6151 59.98547,-61.274755 100.04475,-54.311099 26.39195,4.587812 38.22999,12.061189 69.72547,44.017789 l 28.29052,28.70472 28.90886,-28.62564 c 23.33506,-23.10642 31.66547,-29.9156 43.20608,-35.31611 37.44944,-17.524699 76.66078,-11.53061 105.68732,16.15602 15.48568,14.77082 23.32722,28.75942 27.68443,49.38646 5.76655,27.29884 0.013,58.15754 -14.98713,80.39609 -6.6419,9.84635 -186.00539,179.45617 -189.77607,179.45617 -0.98447,0 -27.13673,-23.58966 -58.11613,-52.42144 z"
         style="opacity:1;fill:#c3181e;fill-opacity:1;fill-rule:evenodd;stroke:none;stroke-width:6.10343933;stroke-linecap:butt;stroke-linejoin:round;stroke-miterlimit:4;stroke-dasharray:none;stroke-dashoffset:3.77952766;stroke-opacity:1" />
      <path
         inkscape:connector-curvature="0"
         id="path821"
         d="M 170.69126,348.85589 C 124.89785,306.02338 82.404309,265.62395 76.261176,259.07942 55.635164,237.10567 48.310912,215.43524 49.823249,180.85692 50.6339,162.32206 51.566121,158.47659 58.794042,143.85189 77.168445,106.67381 116.66122,85.762796 156.41045,92.165015 c 27.40163,4.41345 40.21223,12.386295 71.31825,44.385885 l 27.48463,28.27416 30.0069,-29.29552 c 33.31775,-32.5279 43.81234,-39.058256 69.61697,-43.319798 49.45533,-8.167377 97.70237,26.632228 107.07017,77.227548 4.69574,25.36162 -1.24279,54.91431 -15.4993,77.13114 -6.64591,10.35676 -183.98139,178.1703 -189.70281,179.51682 -1.51429,0.35638 -40.22059,-34.39683 -86.014,-77.22936 z"
         style="opacity:1;fill:#c3181e;fill-opacity:1;fill-rule:evenodd;stroke:none;stroke-width:6.10343933;stroke-linecap:butt;stroke-linejoin:round;stroke-miterlimit:4;stroke-dasharray:none;stroke-dashoffset:3.77952766;stroke-opacity:1" />
      <path
         inkscape:connector-curvature="0"
         id="path823"
         d="M 205.16058,381.61762 C 116.91606,299.5876 83.174209,267.74276 74.899877,258.68034 54.989922,236.87406 48.64312,217.64163 49.841775,182.74789 50.603589,160.57092 51.265736,157.39608 57.916218,144.0328 76.53286,106.62509 117.91389,85.108294 158.01473,91.984824 c 25.73241,4.412619 38.83337,12.593866 68.77431,42.947966 14.59974,14.8012 27.14306,26.91128 27.87406,26.91128 0.731,0 13.86096,-12.01352 29.1777,-26.69671 29.54939,-28.32712 41.28853,-36.219188 61.83505,-41.570879 52.45286,-13.662234 105.45073,20.316269 116.09767,74.433659 5.24309,26.65013 -0.66506,56.76536 -15.54322,79.22727 -3.67551,5.54899 -42.465,43.5653 -86.19889,84.48069 -103.71264,97.02875 -101.26938,94.80393 -104.11277,94.80393 -1.34845,0 -24.18957,-20.20699 -50.75806,-44.90441 z"
         style="opacity:1;fill:#c3181e;fill-opacity:1;fill-rule:evenodd;stroke:none;stroke-width:6.10343933;stroke-linecap:butt;stroke-linejoin:round;stroke-miterlimit:4;stroke-dasharray:none;stroke-dashoffset:3.77952766;stroke-opacity:1" />
      <path
         inkscape:connector-curvature="0"
         id="path825"
         d="M 241.19155,415.30344 C 130.6697,313.45193 73.257698,258.60065 65.746475,247.68365 53.380373,229.71045 49.315587,214.98162 49.29109,188.05725 49.27425,169.55403 50.223115,162.1485 53.854237,152.44345 70.720163,107.36523 120.17917,81.419258 166.56346,93.316707 c 20.78715,5.331848 30.77554,12.195683 61.33547,42.148563 l 27.65486,27.10553 25.661,-25.1199 c 29.34931,-28.73046 40.98928,-36.86289 61.85984,-43.21919 45.89958,-13.979112 96.5202,11.07589 114.33231,56.58954 7.23306,18.48199 8.28529,47.5901 2.4093,66.65046 -9.96221,32.31517 -8.15303,30.4294 -196.93687,205.27506 l -6.78842,6.28721 z"
         style="opacity:1;fill:#c3181e;fill-opacity:1;fill-rule:evenodd;stroke:none;stroke-width:6.10343933;stroke-linecap:butt;stroke-linejoin:round;stroke-miterlimit:4;stroke-dasharray:none;stroke-dashoffset:3.77952766;stroke-opacity:1" />
      <path
         inkscape:connector-curvature="0"
         id="path827"
         d="M 229.05415,404.57923 C 171.80876,352.30737 73.644112,259.20938 68.077557,251.91125 46.537073,223.67022 41.666078,175.04903 57.263956,143.9723 78.119203,102.42096 123.91589,81.533938 168.27443,93.342477 c 18.4777,4.918887 30.33972,13.296273 59.54865,42.055383 l 27.579,27.15429 28.89108,-28.01506 C 321.65409,98.309016 337.09,90.397484 370.54915,90.327366 c 40.52908,-0.08493 76.74271,27.083834 89.00107,66.771834 5.22377,16.91254 5.62708,42.07846 0.96143,59.99105 -6.10866,23.45274 -12.57932,31.89519 -57.36203,74.84186 -49.04621,47.03536 -133.76553,126.2051 -141.89266,132.59792 l -5.56222,4.37523 z"
         style="opacity:1;fill:#c3181e;fill-opacity:1;fill-rule:evenodd;stroke:none;stroke-width:6.10343933;stroke-linecap:butt;stroke-linejoin:round;stroke-miterlimit:4;stroke-dasharray:none;stroke-dashoffset:3.77952766;stroke-opacity:1" />
      <path
         inkscape:connector-curvature="0"
         id="path829"
         d="M 245.74629,420.50169 C 88.609141,275.1244 65.071742,251.96906 57.281624,235.09618 c -3.159627,-6.84354 -6.849893,-20.25732 -8.200592,-29.8084 -7.337499,-51.88502 18.144585,-95.31067 65.096608,-110.935298 11.19664,-3.726001 17.59559,-4.434535 33.67377,-3.728579 30.52626,1.340337 42.40152,7.790539 77.14081,41.900047 15.20856,14.93284 29.06085,27.15063 30.78287,27.15063 1.72202,0 12.38623,-9.38577 23.69827,-20.85726 39.5951,-40.153276 58.91252,-49.908886 95.3744,-48.165622 16.68146,0.79755 21.27106,1.951571 35.2624,8.866468 20.02748,9.898124 36.12589,26.327644 45.63987,46.578584 6.00648,12.78503 6.99546,17.47407 7.72356,36.61878 0.92538,24.33249 -2.27575,39.61003 -12.10535,57.77335 -6.1213,11.31109 -40.76461,45.94948 -116.63039,116.61383 -70.71268,65.86461 -77.01656,71.59387 -78.70875,71.53458 -0.85126,-0.0299 -5.47852,-3.69087 -10.28281,-8.1356 z"
         style="opacity:1;fill:#c3181e;fill-opacity:1;fill-rule:evenodd;stroke:none;stroke-width:6.10343933;stroke-linecap:butt;stroke-linejoin:round;stroke-miterlimit:4;stroke-dasharray:none;stroke-dashoffset:3.77952766;stroke-opacity:1" />
      <path
         inkscape:connector-curvature="0"
         id="path831"
         d="M 220.82847,397.93866 C 171.6001,352.88355 89.350461,275.04674 74.866918,259.8082 59.520957,243.6623 52.348455,228.61173 48.977283,205.48214 42.129804,158.50163 61.496871,119.05257 100.99174,99.533145 c 15.12423,-7.474801 18.1398,-8.171452 38.30899,-8.850064 36.48536,-1.227585 48.28433,4.643137 90.92384,45.240269 l 25.64151,24.41331 13.40934,-12.96745 c 53.60451,-51.838078 65.91981,-58.457662 105.36769,-56.636129 26.20284,1.209934 40.56887,7.233664 58.85961,24.680089 22.3153,21.28518 30.49611,40.86021 30.50487,72.9919 0.0109,38.0326 -6.99324,51.2296 -49.36662,93.0223 -54.05436,53.31359 -155.18212,147.26416 -158.51417,147.26416 -0.93334,0 -16.81759,-13.8388 -35.29833,-30.75287 z"
         style="opacity:1;fill:#c3181e;fill-opacity:1;fill-rule:evenodd;stroke:none;stroke-width:6.10343933;stroke-linecap:butt;stroke-linejoin:round;stroke-miterlimit:4;stroke-dasharray:none;stroke-dashoffset:3.77952766;stroke-opacity:1" />
      <path
         inkscape:connector-curvature="0"
         id="path833"
         d="M 222.73028,400.14861 C 171.6198,353.3371 99.5199,285.08581 80.382173,265.39889 53.709812,237.96112 45.752465,216.77991 47.857305,178.82283 c 0.835607,-15.06869 2.375376,-21.66398 7.728454,-33.10325 18.089774,-38.65695 60.839321,-61.927322 101.757131,-55.390669 27.02505,4.317272 37.63127,11.082729 75.9428,48.442149 l 22.19416,21.6426 21.19566,-20.47207 c 11.65762,-11.25964 25.65711,-24.09096 31.10997,-28.51405 58.46248,-47.421832 145.71075,-13.465565 156.01994,60.72161 4.11745,29.6302 -3.51341,60.07945 -20.11835,80.2778 -15.80229,19.222 -182.69212,176.24937 -187.32967,176.2593 -1.35461,0.002 -16.48682,-12.83905 -33.62712,-28.53764 z"
         style="opacity:1;fill:#c3181e;fill-opacity:1;fill-rule:evenodd;stroke:none;stroke-width:6.10343933;stroke-linecap:butt;stroke-linejoin:round;stroke-miterlimit:4;stroke-dasharray:none;stroke-dashoffset:3.77952766;stroke-opacity:1" />
    </g>
    <text
       xml:space="preserve"
       style="font-style:normal;font-variant:normal;font-weight:500;font-stretch:condensed;font-size:19.75555611px;line-height:1.25;font-family:Futura;-inkscape-font-specification:'Futura, Medium Condensed';font-variant-ligatures:normal;font-variant-caps:normal;font-variant-numeric:normal;font-feature-settings:normal;text-align:start;letter-spacing:0px;word-spacing:0px;writing-mode:lr-tb;text-anchor:start;fill:#ffffff;fill-opacity:1;stroke:none;stroke-width:0.26458332"
       x="23.797733"
       y="53.752499"
       id="text1507"
       inkscape:export-xdpi="96"
       inkscape:export-ydpi="96"><tspan
         sodipodi:role="line"
         id="tspan1505"
         x="23.797733"
         y="53.752499"
         style="font-style:normal;font-variant:normal;font-weight:500;font-stretch:condensed;font-size:19.75555611px;font-family:Futura;-inkscape-font-specification:'Futura, Medium Condensed';font-variant-ligatures:normal;font-variant-caps:normal;font-variant-numeric:normal;font-feature-settings:normal;text-align:start;writing-mode:lr-tb;text-anchor:start;fill:#ffffff;fill-opacity:1;stroke-width:0.26458332">L</tspan></text>
    <text
       xml:space="preserve"
       style="font-style:normal;font-variant:normal;font-weight:normal;font-stretch:normal;font-size:8.46666622px;line-height:1.25;font-family:Lato;-inkscape-font-specification:'Lato, Normal';font-variant-ligatures:normal;font-variant-caps:normal;font-variant-numeric:normal;font-feature-settings:normal;text-align:start;letter-spacing:0px;word-spacing:0px;writing-mode:lr-tb;text-anchor:start;fill:#ffffff;fill-opacity:1;stroke:none;stroke-width:0.26458332"
       x="29.939558"
       y="53.757866"
       id="text1511"
       inkscape:export-xdpi="96"
       inkscape:export-ydpi="96"><tspan
         sodipodi:role="line"
         id="tspan1509"
         x="29.939558"
         y="53.757866"
         style="font-style:normal;font-variant:normal;font-weight:normal;font-stretch:normal;font-size:8.46666622px;font-family:Lato;-inkscape-font-specification:'Lato, Normal';font-variant-ligatures:normal;font-variant-caps:normal;font-variant-numeric:normal;font-feature-settings:normal;text-align:start;writing-mode:lr-tb;text-anchor:start;fill:#ffffff;fill-opacity:1;stroke-width:0.26458332">Universidad</tspan></text>
    <text
       id="text1618"
       y="58.463921"
       x="38.942688"
       style="font-style:normal;font-variant:normal;font-weight:500;font-stretch:condensed;font-size:4.23333311px;line-height:1.25;font-family:Futura;-inkscape-font-specification:'Futura, Medium Condensed';font-variant-ligatures:normal;font-variant-caps:normal;font-variant-numeric:normal;font-feature-settings:normal;text-align:start;letter-spacing:0px;word-spacing:0px;writing-mode:lr-tb;text-anchor:start;opacity:1;fill:#000000;fill-opacity:1;stroke:none;stroke-width:0.26458332;filter:url(#filter2270)"
       xml:space="preserve"
       inkscape:export-xdpi="96"
       inkscape:export-ydpi="96"><tspan
         style="font-style:normal;font-variant:normal;font-weight:500;font-stretch:condensed;font-size:4.23333311px;font-family:Futura;-inkscape-font-specification:'Futura, Medium Condensed';font-variant-ligatures:normal;font-variant-caps:normal;font-variant-numeric:normal;font-feature-settings:normal;text-align:start;writing-mode:lr-tb;text-anchor:start;fill:#000000;fill-opacity:1;stroke-width:0.26458332"
         y="58.463921"
         x="38.942688"
         id="tspan1616"
         sodipodi:role="line">Marketing en la Educación</tspan></text>
    <text
       xml:space="preserve"
       style="font-style:normal;font-variant:normal;font-weight:500;font-stretch:condensed;font-size:4.23333311px;line-height:1.25;font-family:Futura;-inkscape-font-specification:'Futura, Medium Condensed';font-variant-ligatures:normal;font-variant-caps:normal;font-variant-numeric:normal;font-feature-settings:normal;text-align:start;letter-spacing:0px;word-spacing:0px;writing-mode:lr-tb;text-anchor:start;fill:#ffffff;fill-opacity:1;stroke:none;stroke-width:0.26458332"
       x="39.025455"
       y="58.161259"
       id="text1519"
       inkscape:export-xdpi="96"
       inkscape:export-ydpi="96"><tspan
         sodipodi:role="line"
         id="tspan1517"
         x="39.025455"
         y="58.161259"
         style="font-style:normal;font-variant:normal;font-weight:500;font-stretch:condensed;font-size:4.23333311px;font-family:Futura;-inkscape-font-specification:'Futura, Medium Condensed';font-variant-ligatures:normal;font-variant-caps:normal;font-variant-numeric:normal;font-feature-settings:normal;text-align:start;writing-mode:lr-tb;text-anchor:start;fill:#ffffff;fill-opacity:1;stroke-width:0.26458332">Marketing en la Educación</tspan></text>
  </g>
</svg>
